<svg width="339.649" height="87.891" viewBox="0 0 539.649 87.891" xmlns="http://www.w3.org/2000/svg"><g id="svgGroup" stroke-linecap="round" fill-rule="evenodd" font-size="9pt" stroke="#fff" stroke-width="0.25mm" fill="black" style="stroke:#F8E81C;stroke-width:0.25mm;fill:black"><path d="M 143.311 52.735 L 143.311 66.797 L 180.713 66.797 L 180.713 70.313 L 143.311 70.313 L 143.311 73.828 L 180.713 73.828 L 180.713 77.344 L 143.311 77.344 L 143.311 80.86 L 180.713 80.86 L 180.713 84.375 L 139.795 84.375 L 139.795 3.516 L 180.713 3.516 L 180.713 7.031 L 143.311 7.031 L 143.311 10.547 L 180.713 10.547 L 180.713 14.063 L 143.311 14.063 L 143.311 17.578 L 180.713 17.578 L 180.713 21.094 L 143.311 21.094 L 143.311 35.156 L 162.5 35.156 L 162.5 38.672 L 143.311 38.672 L 143.311 42.188 L 162.5 42.188 L 162.5 45.703 L 143.311 45.703 L 143.311 49.219 L 162.5 49.219 L 162.5 52.735 L 143.311 52.735 Z M 238.574 7.031 L 192.871 7.031 L 192.871 84.375 L 189.355 84.375 L 189.355 3.516 L 238.574 3.516 Q 246.289 3.516 253.003 7.324 A 29.191 29.191 0 0 1 263.696 17.652 Q 267.676 24.17 267.676 31.69 Q 267.676 38.867 263.623 44.287 A 23.361 23.361 0 0 1 266.321 49.06 A 17.361 17.361 0 0 1 267.676 55.713 A 31.837 31.837 0 0 1 266.76 63.463 A 27.692 27.692 0 0 1 265.332 67.7 A 27.392 27.392 0 0 1 261.763 73.791 A 23.887 23.887 0 0 1 259.009 76.758 Q 255.029 80.371 249.756 82.373 A 31.237 31.237 0 0 1 238.574 84.375 L 215.918 84.375 L 215.918 80.86 L 238.574 80.86 A 25.546 25.546 0 0 0 248.389 78.931 A 26.02 26.02 0 0 0 256.105 74.091 A 24.887 24.887 0 0 0 256.543 73.682 A 24.679 24.679 0 0 0 261.752 66.398 A 28.344 28.344 0 0 0 262.085 65.674 A 24.331 24.331 0 0 0 264.16 55.713 Q 264.16 54.01 263.58 51.805 A 28.023 28.023 0 0 0 263.062 50.073 A 17.504 17.504 0 0 0 259.814 44.238 Q 264.16 38.428 264.16 31.69 Q 264.16 25.098 260.669 19.409 Q 257.178 13.721 251.27 10.376 A 25.352 25.352 0 0 0 238.574 7.031 Z M 489.648 63.672 L 489.648 60.156 L 510.059 60.156 A 24.898 24.898 0 0 0 520.068 58.081 A 26.625 26.625 0 0 0 528.394 52.466 A 25.51 25.51 0 0 0 533.195 45.714 A 30.059 30.059 0 0 0 534.033 43.872 Q 536.133 38.819 536.133 33.106 A 24.871 24.871 0 0 0 532.568 20.239 A 27.032 27.032 0 0 0 522.974 10.62 A 24.829 24.829 0 0 0 510.059 7.031 L 465.82 7.031 L 465.82 84.375 L 462.305 84.375 L 462.305 3.516 L 510.059 3.516 A 28.115 28.115 0 0 1 524.707 7.593 Q 531.543 11.67 535.596 18.506 A 28.156 28.156 0 0 1 539.648 33.106 Q 539.648 40.039 537.256 45.874 A 30.095 30.095 0 0 1 534.039 51.813 A 25.189 25.189 0 0 1 530.811 55.567 A 28.976 28.976 0 0 1 521.387 61.548 A 30.523 30.523 0 0 1 510.059 63.672 L 489.648 63.672 Z M 238.574 77.344 L 215.918 77.344 L 215.918 73.828 L 238.574 73.828 A 18.514 18.514 0 0 0 251.66 68.726 A 16.882 16.882 0 0 0 257.117 56.449 A 22.327 22.327 0 0 0 257.129 55.713 A 13.186 13.186 0 0 0 256.812 52.924 Q 256.454 51.267 255.688 49.439 A 14.154 14.154 0 0 0 254.218 46.74 A 10.549 10.549 0 0 0 251.709 44.19 A 16.399 16.399 0 0 0 257.117 32.38 A 19.888 19.888 0 0 0 257.129 31.69 A 16.284 16.284 0 0 0 252.237 19.975 A 21.835 21.835 0 0 0 251.563 19.312 A 18.336 18.336 0 0 0 238.574 14.063 L 199.902 14.063 L 199.902 84.375 L 196.387 84.375 L 196.387 10.547 L 238.574 10.547 A 21.99 21.99 0 0 1 249.487 13.404 Q 254.59 16.26 257.617 21.167 A 19.692 19.692 0 0 1 260.645 31.69 A 18.082 18.082 0 0 1 256.414 43.326 A 23.223 23.223 0 0 1 255.811 44.043 A 20.299 20.299 0 0 1 259.007 48.695 A 15.793 15.793 0 0 1 260.645 55.713 Q 260.645 61.817 257.593 66.821 A 21.323 21.323 0 0 1 249.487 74.585 A 22.417 22.417 0 0 1 238.574 77.344 Z M 215.918 46.289 L 215.918 42.774 L 238.574 42.774 A 13.321 13.321 0 0 0 242.876 42.103 A 11.487 11.487 0 0 0 246.753 39.868 A 9.463 9.463 0 0 0 249.862 34.324 A 14.015 14.015 0 0 0 250.098 31.69 A 9.445 9.445 0 0 0 247.519 25.182 A 13.07 13.07 0 0 0 246.606 24.268 A 11.59 11.59 0 0 0 238.574 21.094 L 206.934 21.094 L 206.934 84.375 L 203.418 84.375 L 203.418 17.578 L 238.574 17.578 Q 244.58 17.578 249.097 21.802 A 15.04 15.04 0 0 1 252.104 25.622 A 12.56 12.56 0 0 1 253.613 31.69 A 16.068 16.068 0 0 1 253.094 35.852 A 13.168 13.168 0 0 1 251.538 39.453 Q 249.463 42.774 245.947 44.58 A 12.734 12.734 0 0 1 249.99 46.842 Q 253.613 49.939 253.613 55.713 A 16.256 16.256 0 0 1 252.943 60.495 A 12.81 12.81 0 0 1 249.219 66.333 A 15.259 15.259 0 0 1 238.769 70.312 A 19.496 19.496 0 0 1 238.574 70.313 L 215.918 70.313 L 215.918 66.797 L 238.574 66.797 A 13.321 13.321 0 0 0 242.876 66.126 A 11.487 11.487 0 0 0 246.753 63.892 A 9.463 9.463 0 0 0 249.862 58.348 A 14.015 14.015 0 0 0 250.098 55.713 A 8.984 8.984 0 0 0 247.559 49.414 Q 245.02 46.68 240.088 46.24 A 6.882 6.882 0 0 1 239.81 46.262 Q 239.343 46.289 238.574 46.289 L 215.918 46.289 Z M 489.648 56.641 L 489.648 53.125 L 510.059 53.125 A 18.642 18.642 0 0 0 519.458 50.659 A 18.421 18.421 0 0 0 525.927 44.406 A 22.079 22.079 0 0 0 526.44 43.555 A 20.233 20.233 0 0 0 529.059 34.562 A 24.449 24.449 0 0 0 529.102 33.106 A 18.017 18.017 0 0 0 524.236 20.747 A 23.944 23.944 0 0 0 523.364 19.824 A 20.238 20.238 0 0 0 517.789 15.786 A 17.637 17.637 0 0 0 510.059 14.063 L 472.852 14.063 L 472.852 84.375 L 469.336 84.375 L 469.336 10.547 L 510.059 10.547 Q 515.967 10.547 521.191 13.672 Q 526.416 16.797 529.517 22.022 A 21.373 21.373 0 0 1 532.617 33.106 A 24.345 24.345 0 0 1 530.859 42.394 A 23.29 23.29 0 0 1 529.492 45.191 A 22.838 22.838 0 0 1 523.076 52.426 A 22.262 22.262 0 0 1 521.216 53.638 A 21.772 21.772 0 0 1 510.059 56.641 L 489.648 56.641 Z M 3.662 3.516 L 23.242 77.442 L 42.822 3.516 L 46.484 3.516 L 25.049 84.375 L 21.387 84.375 L 0 3.516 L 3.662 3.516 Z M 489.648 49.61 L 489.648 46.094 L 510.059 46.094 A 11.765 11.765 0 0 0 518.579 42.7 Q 521.903 39.469 522.062 33.693 A 21.328 21.328 0 0 0 522.07 33.106 A 11.116 11.116 0 0 0 519.511 26.016 A 15.145 15.145 0 0 0 518.408 24.78 A 13.255 13.255 0 0 0 515.136 22.326 A 10.837 10.837 0 0 0 510.059 21.094 L 479.883 21.094 L 479.883 84.375 L 476.367 84.375 L 476.367 17.578 L 510.059 17.578 A 14.572 14.572 0 0 1 520.082 21.536 A 19.433 19.433 0 0 1 520.898 22.315 A 17.045 17.045 0 0 1 524.092 26.691 A 14.19 14.19 0 0 1 525.586 33.106 Q 525.586 40.576 521.045 45.093 A 14.986 14.986 0 0 1 510.26 49.608 A 18.267 18.267 0 0 1 510.059 49.61 L 489.648 49.61 Z M 55.566 51.612 L 46.924 84.375 L 43.262 84.375 L 64.648 3.613 L 64.6 3.516 L 68.311 3.516 L 68.311 3.613 L 77.832 36.426 L 86.572 3.516 L 90.234 3.516 L 68.799 84.375 L 65.137 84.375 L 55.566 51.612 Z M 277.271 61.011 Q 273.779 52.881 273.779 43.946 Q 273.779 35.01 277.271 26.88 Q 280.762 18.75 286.646 12.866 Q 292.529 6.983 300.659 3.491 Q 308.789 0 317.725 0 Q 326.66 0 334.79 3.491 Q 342.92 6.983 348.804 12.866 Q 354.688 18.75 358.179 26.88 Q 361.67 35.01 361.67 43.946 Q 361.67 52.881 358.179 61.011 Q 354.688 69.141 348.804 75.025 Q 342.92 80.908 334.79 84.4 Q 326.66 87.891 317.725 87.891 Q 308.789 87.891 300.659 84.4 Q 292.529 80.908 286.646 75.025 Q 280.762 69.141 277.271 61.011 Z M 370.63 61.011 Q 367.139 52.881 367.139 43.946 Q 367.139 35.01 370.63 26.88 Q 374.121 18.75 380.005 12.866 Q 385.889 6.983 394.019 3.491 Q 402.148 0 411.084 0 Q 420.02 0 428.149 3.491 Q 436.279 6.983 442.163 12.866 Q 448.047 18.75 451.538 26.88 Q 455.029 35.01 455.029 43.946 Q 455.029 52.881 451.538 61.011 Q 448.047 69.141 442.163 75.025 Q 436.279 80.908 428.149 84.4 Q 420.02 87.891 411.084 87.891 Q 402.148 87.891 394.019 84.4 Q 385.889 80.908 380.005 75.025 Q 374.121 69.141 370.63 61.011 Z M 213.965 28.125 L 213.965 84.375 L 210.449 84.375 L 210.449 24.61 L 238.574 24.61 A 9.04 9.04 0 0 1 241.717 25.14 A 8.11 8.11 0 0 1 244.238 26.636 A 6.814 6.814 0 0 1 245.954 28.824 A 6.497 6.497 0 0 1 246.582 31.69 A 11.489 11.489 0 0 1 246.398 33.819 Q 245.947 36.209 244.385 37.476 A 7.649 7.649 0 0 1 241.371 38.941 Q 240.099 39.258 238.574 39.258 L 215.918 39.258 L 215.918 35.742 L 238.574 35.742 A 7.255 7.255 0 0 0 240.269 35.562 Q 242.539 35.015 242.967 32.805 A 5.875 5.875 0 0 0 243.066 31.69 A 3.478 3.478 0 0 0 242.857 30.458 A 3.049 3.049 0 0 0 241.797 29.077 A 4.627 4.627 0 0 0 239.969 28.265 A 6.618 6.618 0 0 0 238.574 28.125 L 213.965 28.125 Z M 486.914 28.125 L 486.914 84.375 L 483.398 84.375 L 483.398 24.61 L 510.059 24.61 A 8.114 8.114 0 0 1 515.961 27.07 A 10.288 10.288 0 0 1 516.04 27.149 A 8.741 8.741 0 0 1 517.946 29.954 A 8.147 8.147 0 0 1 518.555 33.106 A 15.384 15.384 0 0 1 518.177 36.68 Q 516.763 42.578 510.059 42.578 L 489.648 42.578 L 489.648 39.063 L 510.059 39.063 A 6.712 6.712 0 0 0 511.549 38.907 Q 512.626 38.662 513.403 38.031 A 4.134 4.134 0 0 0 513.721 37.744 Q 514.913 36.552 515.027 33.723 A 15.325 15.325 0 0 0 515.039 33.106 A 5.251 5.251 0 0 0 514.723 31.252 A 4.68 4.68 0 0 0 513.599 29.541 Q 512.158 28.125 510.059 28.125 L 486.914 28.125 Z M 280.493 28.247 Q 277.295 35.742 277.295 43.946 Q 277.295 52.149 280.493 59.644 A 41.092 41.092 0 0 0 287.472 70.814 A 38.615 38.615 0 0 0 289.111 72.559 A 40.273 40.273 0 0 0 301.098 80.769 A 45.93 45.93 0 0 0 302.026 81.177 Q 309.521 84.375 317.725 84.375 Q 325.928 84.375 333.423 81.177 A 41.092 41.092 0 0 0 344.594 74.198 A 38.615 38.615 0 0 0 346.338 72.559 A 40.273 40.273 0 0 0 354.548 60.573 A 45.93 45.93 0 0 0 354.956 59.644 Q 358.154 52.149 358.154 43.946 Q 358.154 35.742 354.956 28.247 A 41.092 41.092 0 0 0 347.977 17.077 A 38.615 38.615 0 0 0 346.338 15.332 A 40.273 40.273 0 0 0 334.352 7.123 A 45.93 45.93 0 0 0 333.423 6.714 Q 325.928 3.516 317.725 3.516 Q 309.521 3.516 302.026 6.714 A 41.092 41.092 0 0 0 290.856 13.693 A 38.615 38.615 0 0 0 289.111 15.332 A 40.273 40.273 0 0 0 280.902 27.318 A 45.93 45.93 0 0 0 280.493 28.247 Z M 373.853 28.247 Q 370.654 35.742 370.654 43.946 Q 370.654 52.149 373.853 59.644 A 41.092 41.092 0 0 0 380.831 70.814 A 38.615 38.615 0 0 0 382.471 72.559 A 40.273 40.273 0 0 0 394.457 80.769 A 45.93 45.93 0 0 0 395.386 81.177 Q 402.881 84.375 411.084 84.375 Q 419.287 84.375 426.782 81.177 A 41.092 41.092 0 0 0 437.953 74.198 A 38.615 38.615 0 0 0 439.697 72.559 A 40.273 40.273 0 0 0 447.907 60.573 A 45.93 45.93 0 0 0 448.315 59.644 Q 451.514 52.149 451.514 43.946 Q 451.514 35.742 448.315 28.247 A 41.092 41.092 0 0 0 441.337 17.077 A 38.615 38.615 0 0 0 439.697 15.332 A 40.273 40.273 0 0 0 427.711 7.123 A 45.93 45.93 0 0 0 426.782 6.714 Q 419.287 3.516 411.084 3.516 Q 402.881 3.516 395.386 6.714 A 41.092 41.092 0 0 0 384.215 13.693 A 38.615 38.615 0 0 0 382.471 15.332 A 40.273 40.273 0 0 0 374.261 27.318 A 45.93 45.93 0 0 0 373.853 28.247 Z M 280.811 43.946 A 36.082 36.082 0 0 0 285.767 62.451 Q 290.723 70.947 299.219 75.904 A 36.082 36.082 0 0 0 317.725 80.86 A 36.082 36.082 0 0 0 336.23 75.904 Q 344.727 70.947 349.683 62.451 A 36.082 36.082 0 0 0 354.639 43.946 A 36.082 36.082 0 0 0 349.683 25.44 Q 344.727 16.944 336.23 11.988 A 36.082 36.082 0 0 0 317.725 7.031 A 36.082 36.082 0 0 0 299.219 11.988 Q 290.723 16.944 285.767 25.44 A 36.082 36.082 0 0 0 280.811 43.946 Z M 374.17 43.946 A 36.082 36.082 0 0 0 379.126 62.451 Q 384.082 70.947 392.578 75.904 A 36.082 36.082 0 0 0 411.084 80.86 A 36.082 36.082 0 0 0 429.59 75.904 Q 438.086 70.947 443.042 62.451 A 36.082 36.082 0 0 0 447.998 43.946 A 36.082 36.082 0 0 0 443.042 25.44 Q 438.086 16.944 429.59 11.988 A 36.082 36.082 0 0 0 411.084 7.031 A 36.082 36.082 0 0 0 392.578 11.988 Q 384.082 16.944 379.126 25.44 A 36.082 36.082 0 0 0 374.17 43.946 Z M 286.963 30.957 A 32.858 32.858 0 0 0 284.326 43.946 A 32.858 32.858 0 0 0 286.963 56.934 A 33.946 33.946 0 0 0 292.456 65.866 A 31.659 31.659 0 0 0 294.067 67.603 Q 298.535 72.071 304.736 74.707 A 32.858 32.858 0 0 0 317.725 77.344 A 32.858 32.858 0 0 0 330.713 74.707 A 33.946 33.946 0 0 0 339.645 69.214 A 31.659 31.659 0 0 0 341.382 67.603 Q 345.85 63.135 348.486 56.934 A 32.858 32.858 0 0 0 351.123 43.946 A 32.858 32.858 0 0 0 348.486 30.957 A 33.946 33.946 0 0 0 342.993 22.025 A 31.659 31.659 0 0 0 341.382 20.288 Q 336.914 15.821 330.713 13.184 A 32.858 32.858 0 0 0 317.725 10.547 A 32.858 32.858 0 0 0 304.736 13.184 A 33.946 33.946 0 0 0 295.804 18.677 A 31.659 31.659 0 0 0 294.067 20.288 Q 289.6 24.756 286.963 30.957 Z M 380.322 30.957 A 32.858 32.858 0 0 0 377.686 43.946 A 32.858 32.858 0 0 0 380.322 56.934 A 33.946 33.946 0 0 0 385.816 65.866 A 31.659 31.659 0 0 0 387.427 67.603 Q 391.895 72.071 398.096 74.707 A 32.858 32.858 0 0 0 411.084 77.344 A 32.858 32.858 0 0 0 424.072 74.707 A 33.946 33.946 0 0 0 433.005 69.214 A 31.659 31.659 0 0 0 434.741 67.603 Q 439.209 63.135 441.846 56.934 A 32.858 32.858 0 0 0 444.482 43.946 A 32.858 32.858 0 0 0 441.846 30.957 A 33.946 33.946 0 0 0 436.352 22.025 A 31.659 31.659 0 0 0 434.741 20.288 Q 430.273 15.821 424.072 13.184 A 32.858 32.858 0 0 0 411.084 10.547 A 32.858 32.858 0 0 0 398.096 13.184 A 33.946 33.946 0 0 0 389.163 18.677 A 31.659 31.659 0 0 0 387.427 20.288 Q 382.959 24.756 380.322 30.957 Z M 287.842 43.946 A 29.296 29.296 0 0 0 291.846 58.936 Q 295.85 65.821 302.734 69.824 A 29.296 29.296 0 0 0 317.725 73.828 A 29.296 29.296 0 0 0 332.715 69.824 Q 339.6 65.821 343.604 58.936 A 29.296 29.296 0 0 0 347.607 43.946 A 29.296 29.296 0 0 0 343.604 28.955 Q 339.6 22.071 332.715 18.067 A 29.296 29.296 0 0 0 317.725 14.063 A 29.296 29.296 0 0 0 302.734 18.067 Q 295.85 22.071 291.846 28.955 A 29.296 29.296 0 0 0 287.842 43.946 Z M 381.201 43.946 A 29.296 29.296 0 0 0 385.205 58.936 Q 389.209 65.821 396.094 69.824 A 29.296 29.296 0 0 0 411.084 73.828 A 29.296 29.296 0 0 0 426.074 69.824 Q 432.959 65.821 436.963 58.936 A 29.296 29.296 0 0 0 440.967 43.946 A 29.296 29.296 0 0 0 436.963 28.955 Q 432.959 22.071 426.074 18.067 A 29.296 29.296 0 0 0 411.084 14.063 A 29.296 29.296 0 0 0 396.094 18.067 Q 389.209 22.071 385.205 28.955 A 29.296 29.296 0 0 0 381.201 43.946 Z M 112.061 3.516 L 90.674 84.375 L 87.012 84.375 L 108.398 3.516 L 112.061 3.516 Z M 60.986 3.516 L 39.6 84.375 L 35.986 84.375 L 57.373 3.516 L 60.986 3.516 Z M 104.736 3.516 L 83.35 84.375 L 79.736 84.375 L 101.123 3.516 L 104.736 3.516 Z M 53.711 3.516 L 32.324 84.375 L 28.711 84.375 L 50.146 3.516 L 53.711 3.516 Z M 97.461 3.516 L 76.074 84.375 L 72.461 84.375 L 93.896 3.516 L 97.461 3.516 Z M 136.279 3.516 L 136.279 84.375 L 132.764 84.375 L 132.764 3.516 L 136.279 3.516 Z M 129.248 3.516 L 129.248 84.375 L 125.732 84.375 L 125.732 3.516 L 129.248 3.516 Z M 122.217 3.516 L 122.217 84.375 L 118.701 84.375 L 118.701 3.516 L 122.217 3.516 Z M 294.897 30.713 Q 291.357 36.768 291.357 43.946 A 25.75 25.75 0 0 0 294.897 57.178 Q 298.438 63.233 304.492 66.773 Q 310.547 70.313 317.725 70.313 A 25.75 25.75 0 0 0 330.957 66.773 Q 337.012 63.233 340.552 57.178 Q 344.092 51.123 344.092 43.946 A 25.75 25.75 0 0 0 340.552 30.713 Q 337.012 24.658 330.957 21.118 Q 324.902 17.578 317.725 17.578 A 25.75 25.75 0 0 0 304.492 21.118 Q 298.438 24.658 294.897 30.713 Z M 388.257 30.713 Q 384.717 36.768 384.717 43.946 A 25.75 25.75 0 0 0 388.257 57.178 Q 391.797 63.233 397.852 66.773 Q 403.906 70.313 411.084 70.313 A 25.75 25.75 0 0 0 424.316 66.773 Q 430.371 63.233 433.911 57.178 Q 437.451 51.123 437.451 43.946 A 25.75 25.75 0 0 0 433.911 30.713 Q 430.371 24.658 424.316 21.118 Q 418.262 17.578 411.084 17.578 A 25.75 25.75 0 0 0 397.852 21.118 Q 391.797 24.658 388.257 30.713 Z M 296.68 52.808 Q 294.873 48.584 294.873 43.946 Q 294.873 39.307 296.68 35.083 A 23.085 23.085 0 0 1 301.177 28.179 A 22.111 22.111 0 0 1 301.563 27.783 A 22.947 22.947 0 0 1 308.731 22.957 A 26.004 26.004 0 0 1 308.862 22.901 Q 313.086 21.094 317.725 21.094 Q 322.363 21.094 326.587 22.901 A 23.085 23.085 0 0 1 333.492 27.398 A 22.111 22.111 0 0 1 333.887 27.783 A 22.947 22.947 0 0 1 338.713 34.952 A 26.004 26.004 0 0 1 338.77 35.083 Q 340.576 39.307 340.576 43.946 Q 340.576 48.584 338.77 52.808 A 23.085 23.085 0 0 1 334.272 59.712 A 22.111 22.111 0 0 1 333.887 60.108 A 22.947 22.947 0 0 1 326.719 64.934 A 26.004 26.004 0 0 1 326.587 64.99 Q 322.363 66.797 317.725 66.797 Q 313.086 66.797 308.862 64.99 A 23.085 23.085 0 0 1 301.958 60.493 A 22.111 22.111 0 0 1 301.563 60.108 A 22.947 22.947 0 0 1 296.736 52.94 A 26.004 26.004 0 0 1 296.68 52.808 Z M 390.039 52.808 Q 388.232 48.584 388.232 43.946 Q 388.232 39.307 390.039 35.083 A 23.085 23.085 0 0 1 394.536 28.179 A 22.111 22.111 0 0 1 394.922 27.783 A 22.947 22.947 0 0 1 402.09 22.957 A 26.004 26.004 0 0 1 402.222 22.901 Q 406.445 21.094 411.084 21.094 Q 415.723 21.094 419.946 22.901 A 23.085 23.085 0 0 1 426.851 27.398 A 22.111 22.111 0 0 1 427.246 27.783 A 22.947 22.947 0 0 1 432.072 34.952 A 26.004 26.004 0 0 1 432.129 35.083 Q 433.936 39.307 433.936 43.946 Q 433.936 48.584 432.129 52.808 A 23.085 23.085 0 0 1 427.632 59.712 A 22.111 22.111 0 0 1 427.246 60.108 A 22.947 22.947 0 0 1 420.078 64.934 A 26.004 26.004 0 0 1 419.946 64.99 Q 415.723 66.797 411.084 66.797 Q 406.445 66.797 402.222 64.99 A 23.085 23.085 0 0 1 395.317 60.493 A 22.111 22.111 0 0 1 394.922 60.108 A 22.947 22.947 0 0 1 390.096 52.94 A 26.004 26.004 0 0 1 390.039 52.808 Z M 238.574 53.028 L 215.918 53.028 L 215.918 49.512 L 238.574 49.512 A 14.008 14.008 0 0 1 241.547 49.799 Q 245.838 50.735 246.472 54.725 A 9.409 9.409 0 0 1 246.582 56.201 Q 246.582 58.694 245.616 60.264 A 4.911 4.911 0 0 1 244.385 61.621 Q 242.397 63.123 239.249 63.266 A 14.876 14.876 0 0 1 238.574 63.281 L 215.918 63.281 L 215.918 59.766 L 238.574 59.766 A 8.309 8.309 0 0 0 240.214 59.619 Q 243.066 59.042 243.066 56.201 Q 243.066 54.297 241.919 53.662 A 4.183 4.183 0 0 0 241.006 53.301 Q 240.09 53.048 238.787 53.029 A 14.686 14.686 0 0 0 238.574 53.028 Z M 10.938 3.516 L 25.684 59.522 L 24.023 66.455 L 7.324 3.516 L 10.938 3.516 Z M 304.053 30.274 A 18.607 18.607 0 0 0 298.39 43.696 A 22.489 22.489 0 0 0 298.389 43.946 A 18.607 18.607 0 0 0 303.877 57.44 A 22.507 22.507 0 0 0 304.053 57.617 A 18.607 18.607 0 0 0 317.475 63.28 A 22.489 22.489 0 0 0 317.725 63.281 A 18.607 18.607 0 0 0 331.219 57.793 A 22.507 22.507 0 0 0 331.396 57.617 A 18.607 18.607 0 0 0 337.059 44.195 A 22.489 22.489 0 0 0 337.061 43.946 A 18.607 18.607 0 0 0 331.572 30.451 A 22.507 22.507 0 0 0 331.396 30.274 A 18.607 18.607 0 0 0 317.974 24.611 A 22.489 22.489 0 0 0 317.725 24.61 A 18.607 18.607 0 0 0 304.23 30.098 A 22.507 22.507 0 0 0 304.053 30.274 Z M 397.412 30.274 A 18.607 18.607 0 0 0 391.749 43.696 A 22.489 22.489 0 0 0 391.748 43.946 A 18.607 18.607 0 0 0 397.236 57.44 A 22.507 22.507 0 0 0 397.412 57.617 A 18.607 18.607 0 0 0 410.834 63.28 A 22.489 22.489 0 0 0 411.084 63.281 A 18.607 18.607 0 0 0 424.578 57.793 A 22.507 22.507 0 0 0 424.756 57.617 A 18.607 18.607 0 0 0 430.419 44.195 A 22.489 22.489 0 0 0 430.42 43.946 A 18.607 18.607 0 0 0 424.931 30.451 A 22.507 22.507 0 0 0 424.756 30.274 A 18.607 18.607 0 0 0 411.334 24.611 A 22.489 22.489 0 0 0 411.084 24.61 A 18.607 18.607 0 0 0 397.59 30.098 A 22.507 22.507 0 0 0 397.412 30.274 Z M 18.164 3.516 L 29.346 45.996 L 27.539 52.735 L 14.6 3.516 L 18.164 3.516 Z M 66.553 10.254 L 64.648 17.285 L 74.219 50.196 L 76.025 43.262 L 66.553 10.254 Z M 59.229 37.842 L 57.422 44.727 L 66.895 77.735 L 68.75 70.752 L 59.229 37.842 Z M 62.891 24.024 L 61.035 30.957 L 70.557 63.867 L 72.412 56.983 L 62.891 24.024 Z M 25.488 3.516 L 33.008 31.983 L 31.152 38.819 L 21.826 3.516 L 25.488 3.516 Z" vector-effect="non-scaling-stroke"/></g></svg>